<svg width="21" height="21" viewBox="0 0 21 21" fill="none" xmlns="http://www.w3.org/2000/svg">
<path d="M10.1562 5.46875C9.22915 5.46875 8.32287 5.74367 7.55201 6.25874C6.78116 6.77381 6.18035 7.50589 5.82556 8.36242C5.47078 9.21895 5.37795 10.1614 5.55882 11.0707C5.73969 11.98 6.18613 12.8153 6.84169 13.4708C7.49725 14.1264 8.33248 14.5728 9.24176 14.7537C10.1511 14.9345 11.0935 14.8417 11.9501 14.4869C12.8066 14.1321 13.5387 13.5313 14.0538 12.7605C14.5688 11.9896 14.8438 11.0834 14.8438 10.1562C14.8425 8.91344 14.3482 7.72191 13.4694 6.84311C12.5906 5.96432 11.3991 5.47004 10.1562 5.46875ZM10.1562 13.2812C9.53818 13.2812 8.934 13.098 8.42009 12.7546C7.90619 12.4112 7.50565 11.9232 7.26913 11.3521C7.0326 10.7811 6.97072 10.1528 7.0913 9.54659C7.21187 8.9404 7.5095 8.38358 7.94654 7.94654C8.38358 7.5095 8.9404 7.21187 9.54659 7.0913C10.1528 6.97072 10.7811 7.0326 11.3521 7.26913C11.9232 7.50565 12.4112 7.90619 12.7546 8.42009C13.098 8.934 13.2812 9.53818 13.2812 10.1562C13.2812 10.9851 12.952 11.7799 12.366 12.366C11.7799 12.952 10.9851 13.2812 10.1562 13.2812ZM14.8438 0H5.46875C4.01882 0.001551 2.62873 0.578219 1.60347 1.60347C0.578219 2.62873 0.001551 4.01882 0 5.46875V14.8438C0.001551 16.2937 0.578219 17.6838 1.60347 18.709C2.62873 19.7343 4.01882 20.3109 5.46875 20.3125H14.8438C16.2937 20.3109 17.6838 19.7343 18.709 18.709C19.7343 17.6838 20.3109 16.2937 20.3125 14.8438V5.46875C20.3109 4.01882 19.7343 2.62873 18.709 1.60347C17.6838 0.578219 16.2937 0.001551 14.8438 0ZM18.75 14.8438C18.75 15.8798 18.3384 16.8733 17.6059 17.6059C16.8733 18.3384 15.8798 18.75 14.8438 18.75H5.46875C4.43275 18.75 3.43918 18.3384 2.70661 17.6059C1.97405 16.8733 1.5625 15.8798 1.5625 14.8438V5.46875C1.5625 4.43275 1.97405 3.43918 2.70661 2.70661C3.43918 1.97405 4.43275 1.5625 5.46875 1.5625H14.8438C15.8798 1.5625 16.8733 1.97405 17.6059 2.70661C18.3384 3.43918 18.75 4.43275 18.75 5.46875V14.8438ZM16.4062 5.07812C16.4062 5.3099 16.3375 5.53647 16.2088 5.72918C16.08 5.9219 15.897 6.0721 15.6828 6.1608C15.4687 6.24949 15.2331 6.2727 15.0058 6.22748C14.7784 6.18227 14.5696 6.07066 14.4057 5.90677C14.2418 5.74288 14.1302 5.53407 14.085 5.30675C14.0398 5.07943 14.063 4.8438 14.1517 4.62967C14.2404 4.41554 14.3906 4.23251 14.5833 4.10375C14.776 3.97498 15.0026 3.90625 15.2344 3.90625C15.5452 3.90625 15.8432 4.02972 16.063 4.24948C16.2828 4.46925 16.4062 4.76732 16.4062 5.07812Z" fill="black"/>
</svg>
